#!OML:ASF F:\VICON\USERDATA\INSTALL\Justin_Nancy\Justin_Nancy.ASF
:FULLY-SPECIFIED
:DEGREES
143
root 0.703557 17.3132 -9.13156 1.189 4.04349 6.25732
lowerback 3.78559 -1.64932 -6.81552
upperback 0.172633 -2.47117 1.03606
thorax -1.61203 -1.18187 5.01997
lowerneck -16.3972 -3.05606 -9.57559
upperneck 23.174 -2.69467 4.07163
head 10.3217 -1.60873 2.68287
rclavicle -2.25621e-014 -1.59028e-015
rhumerus -38.8786 -24.0938 -72.7756
rradius 22.7628
rwrist 15.3717
rhand -15.5933 11.3402
rfingers 7.12502
rthumb 10.5925 -18.3728
lclavicle -2.25621e-014 -1.59028e-015
lhumerus -20.9449 1.71695 86.0341
lradius 32.9681
lwrist -5.88309
lhand -14.9182 24.827
lfingers 7.12502
lthumb 11.2437 54.5057
rfemur -25.6732 3.77301 12.1813
rtibia 13.6128
rfoot -2.19313 -10.6651
rtoes -8.74786
lfemur 2.98252 -0.3928 -30.2886
ltibia 22.6469
lfoot -16.8586 -0.618669
ltoes 4.52678
144
root 0.68983 17.3024 -8.99431 1.19342 4.15421 6.33682
lowerback 3.72218 -1.68181 -6.84905
upperback 0.177025 -2.51195 0.988663
thorax -1.56704 -1.20392 4.98834
lowerneck -16.4127 -3.03005 -9.55488
upperneck 23.1699 -2.66976 4.1014
head 10.3209 -1.5917 2.69352
rclavicle 8.79622e-015 7.95139e-016
rhumerus -39.072 -23.8354 -72.8842
rradius 22.8154
rwrist 15.2889
rhand -15.6451 11.6356
rfingers 7.12502
rthumb 10.5425 -18.08
lclavicle 8.79622e-015 7.95139e-016
lhumerus -21.1546 1.25382 86.0448
lradius 33.4121
lwrist -5.53783
lhand -16.1971 22.4572
lfingers 7.12502
lthumb 10.01 52.1992
rfemur -25.7862 3.30131 12.4351
rtibia 14.3586
rfoot -2.23245 -10.0706
rtoes -13.3144
lfemur 3.6031 -0.688633 -30.2942
ltibia 22.3737
lfoot -16.8519 -0.543314
ltoes 3.91622
145
root 0.674381 17.2913 -8.86779 1.0944 4.08962 6.4316
lowerback 3.89502 -1.63784 -6.9628
upperback 0.238848 -2.46912 0.983711
thorax -1.60123 -1.1821 5.05105
lowerneck -16.7266 -3.03263 -9.60445
upperneck 23.1914 -2.627 4.10667
head 10.3865 -1.57314 2.70849
rclavicle 1.80894e-014 0
rhumerus -39.0532 -23.2652 -73.1705
rradius 23.0406
rwrist 14.8878
rhand -15.5542 11.4236
rfingers 7.12502
rthumb 10.6302 -18.2875
lclavicle 1.80894e-014 0
lhumerus -21.2199 1.25436 86.1074
lradius 33.7615
lwrist -5.67627
lhand -15.9804 22.6504
lfingers 7.12502
lthumb 10.219 52.3821
rfemur -26.0709 2.95382 12.6989
rtibia 15.6484
rfoot -0.965415 -8.89361
rtoes -13.159
lfemur 4.49731 -0.848525 -30.326
ltibia 21.8026
lfoot -16.7576 -0.389732
ltoes 3.04712
146
root 0.655114 17.2945 -8.7389 0.92566 3.93246 6.38191
lowerback 4.19333 -1.53918 -6.96344
upperback 0.221873 -2.3605 0.98798
thorax -1.8011 -1.11958 5.06328
lowerneck -16.7243 -3.07817 -9.57224
upperneck 23.1713 -2.69356 4.08085
head 10.3831 -1.60353 2.6841
rclavicle 1.32689e-014 2.38542e-015
rhumerus -39.2077 -22.9196 -73.3108
rradius 23.2284
rwrist 14.7701
rhand -15.3736 10.663
rfingers 7.12502
rthumb 10.8044 -19.0391
lclavicle 1.32689e-014 2.38542e-015
lhumerus -21.3639 1.068 86.1629
lradius 33.9442
lwrist -5.68077
lhand -13.2191 28.198
lfingers 7.12502
lthumb 12.882 57.7805
rfemur -26.3596 2.92188 13.0018
rtibia 17.0481
rfoot 1.52773 -7.26198
rtoes -5.90971
lfemur 5.54009 -0.990899 -30.2202
ltibia 21.1081
lfoot -16.4487 -0.130282
ltoes 1.92929
147
root 0.637358 17.2925 -8.60751 0.742916 3.76918 6.4232
lowerback 4.43777 -1.41673 -6.98356
upperback 0.228618 -2.2177 0.927573
thorax -1.95275 -1.04251 5.01374
lowerneck -16.5688 -3.1562 -9.56695
upperneck 23.023 -2.83364 4.13561
head 10.311 -1.65965 2.68201
rclavicle 2.98177e-016 2.06736e-014
rhumerus -39.3041 -23.2507 -73.1111
rradius 22.9456
rwrist 15.52
rhand -15.4688 10.8153
rfingers 7.12502
rthumb 10.7126 -18.8916
lclavicle 2.98177e-016 2.06736e-014
lhumerus -21.3867 0.656023 86.2305
lradius 33.9437
lwrist -5.61615
lhand -17.6177 18.6999
lfingers 7.12502
lthumb 8.63932 48.5031
rfemur -26.5618 2.64044 13.2476
rtibia 18.1773
rfoot 4.93005 -5.29913
rtoes 5.42478
lfemur 6.61306 -1.34909 -30.3282
ltibia 20.4882
lfoot -16.121 0.490849
ltoes -1.11874
148
root 0.623245 17.2907 -8.47553 0.609837 3.61948 6.30142
lowerback 4.51469 -1.37414 -6.87167
upperback 0.301282 -2.15684 1.01274
thorax -1.92953 -1.01577 5.0377
lowerneck -16.6538 -3.17525 -9.67549
upperneck 22.913 -2.83276 4.18883
head 10.2902 -1.65959 2.71738
rclavicle -1.61016e-014 -8.74653e-015
rhumerus -39.1433 -23.6339 -72.7057
rradius 22.3284
rwrist 16.6415
rhand -15.6708 12.2317
rfingers 7.12502
rthumb 10.5178 -17.4851
lclavicle -1.61016e-014 -8.74653e-015
lhumerus -21.3295 0.632155 86.3557
lradius 33.9007
lwrist -5.74394
lhand -11.9762 28.0597
lfingers 7.12502
lthumb 14.0799 57.5627
rfemur -26.699 2.35303 13.679
rtibia 18.9633
rfoot 8.33297 -3.40219
rtoes 16.9326
lfemur 7.50121 -1.76372 -30.2989
ltibia 20.0893
lfoot -15.8283 0.997791
ltoes -5.37093
149
root 0.610788 17.3102 -8.34198 0.420739 3.64909 6.0095
lowerback 4.66069 -1.38578 -6.55371
upperback 0.271609 -2.16492 1.12256
thorax -2.04844 -1.01701 4.97907
lowerneck -16.3974 -3.13327 -9.70462
upperneck 22.8604 -2.7791 4.13672
head 10.2183 -1.64514 2.71166
rclavicle 1.03865e-014 -1.11319e-014
rhumerus -39.2493 -23.8876 -72.2767
rradius 21.8257
rwrist 17.4972
rhand -15.6265 13.3081
rfingers 7.12502
rthumb 10.5604 -16.4066
lclavicle 1.03865e-014 -1.11319e-014
lhumerus -21.5308 0.858659 86.4425
lradius 33.8247
lwrist -5.99617
lhand -16.5445 21.7641
lfingers 7.12502
lthumb 9.67483 51.5219
rfemur -26.6641 2.49566 14.1221
rtibia 19.6772
rfoot 7.76379 -2.409
rtoes 14.7435
lfemur 8.2229 -2.11848 -30.0262
ltibia 19.9229
lfoot -15.6529 1.17432
ltoes -7.97272
150
root 0.59367 17.3367 -8.21202 0.252749 3.82024 5.68385
lowerback 4.96511 -1.45032 -6.22392
upperback 0.161288 -2.25436 1.21209
thorax -2.33067 -1.0514 4.90484
lowerneck -16.099 -3.02167 -9.60727
upperneck 22.8758 -2.66383 4.06726
head 10.1552 -1.59493 2.68831
rclavicle -1.03368e-014 -1.90833e-014
rhumerus -39.4016 -23.4911 -72.3621
rradius 21.7395
rwrist 17.5771
rhand -15.7434 13.4268
rfingers 7.12502
rthumb 10.4477 -16.2936
lclavicle -1.03368e-014 -1.90833e-014
lhumerus -21.9064 1.09989 86.4574
lradius 33.7087
lwrist -6.19564
lhand -16.4912 21.7824
lfingers 7.12502
lthumb 9.72628 51.5378
rfemur -26.4181 2.87139 14.5254
rtibia 20.2395
rfoot 7.37455 -3.05887
rtoes 7.30211
lfemur 8.64608 -2.65928 -29.7044
ltibia 20.1737
lfoot -15.4651 1.09038
ltoes -8.83576
151
root 0.574329 17.355 -8.08214 0.0818128 3.93588 5.19472
lowerback 5.19802 -1.51995 -5.85205
upperback 0.170587 -2.33402 1.43755
thorax -2.44638 -1.09052 4.94368
lowerneck -16.2356 -2.95307 -9.65247
upperneck 22.9797 -2.52876 4.01763
head 10.2087 -1.54323 2.69741
rclavicle -1.14301e-014 0
rhumerus -39.109 -22.9626 -72.6239
rradius 21.7536
rwrist 17.5234
rhand -15.628 12.6402
rfingers 7.12502
rthumb 10.559 -17.0746
lclavicle -1.14301e-014 0
lhumerus -22.2237 1.54698 86.5502
lradius 33.7433
lwrist -6.3716
lhand -15.5227 24.6264
lfingers 7.12502
lthumb 10.6606 54.336
rfemur -26.0695 3.11026 15.2252
rtibia 20.7574
rfoot 7.76384 -3.47814
rtoes -0.383723
lfemur 8.88646 -3.18521 -29.2181
ltibia 20.7851
lfoot -15.1357 0.843209
ltoes -9.17158
152
root 0.555865 17.3646 -7.94569 -0.154582 4.05693 4.63951
lowerback 5.25393 -1.60015 -5.40738
upperback 0.352729 -2.40749 1.68773
thorax -2.28648 -1.14092 4.95566
lowerneck -16.5055 -2.97309 -9.79477
upperneck 22.9824 -2.48583 4.01048
head 10.2607 -1.53434 2.72326
rclavicle 2.74323e-014 9.54166e-015
rhumerus -38.485 -22.4188 -73.0507
rradius 21.8652
rwrist 17.1313
rhand -15.0873 10.8784
rfingers 7.12502
rthumb 11.0805 -18.8091
lclavicle 2.74323e-014 9.54166e-015
lhumerus -22.3262 2.07127 86.7193
lradius 33.7419
lwrist -6.34431
lhand -16.8783 24.5923
lfingers 7.12502
lthumb 9.35274 54.3648
rfemur -25.6732 3.49376 15.9423
rtibia 21.4382
rfoot 7.58189 -4.15888
rtoes -0.11098
lfemur 9.15319 -3.84246 -28.7423
ltibia 21.6101
lfoot -14.8281 1.09322
ltoes -10.1923
